<svg width="360" height="63" viewBox="0 0 360 63" fill="none" xmlns="http://www.w3.org/2000/svg">
<rect width="360" height="63" fill="#0072F9" fill-opacity="0.78"/>
<path d="M78.8941 21H82.7941V42H78.8941V21ZM68.0341 42H64.1341V21H68.0341V42ZM79.1941 33H67.7041V29.67H79.1941V33ZM96.4912 42.21C94.7112 42.21 93.1512 41.86 91.8112 41.16C90.4912 40.44 89.4612 39.46 88.7212 38.22C88.0012 36.98 87.6412 35.57 87.6412 33.99C87.6412 32.39 87.9912 30.98 88.6912 29.76C89.4112 28.52 90.3912 27.55 91.6312 26.85C92.8912 26.15 94.3212 25.8 95.9212 25.8C97.4812 25.8 98.8712 26.14 100.091 26.82C101.311 27.5 102.271 28.46 102.971 29.7C103.671 30.94 104.021 32.4 104.021 34.08C104.021 34.24 104.011 34.42 103.991 34.62C103.991 34.82 103.981 35.01 103.961 35.19H90.6112V32.7H101.981L100.511 33.48C100.531 32.56 100.341 31.75 99.9412 31.05C99.5412 30.35 98.9912 29.8 98.2912 29.4C97.6112 29 96.8212 28.8 95.9212 28.8C95.0012 28.8 94.1912 29 93.4912 29.4C92.8112 29.8 92.2712 30.36 91.8712 31.08C91.4912 31.78 91.3012 32.61 91.3012 33.57V34.17C91.3012 35.13 91.5212 35.98 91.9612 36.72C92.4012 37.46 93.0212 38.03 93.8212 38.43C94.6212 38.83 95.5412 39.03 96.5812 39.03C97.4812 39.03 98.2912 38.89 99.0112 38.61C99.7312 38.33 100.371 37.89 100.931 37.29L102.941 39.6C102.221 40.44 101.311 41.09 100.211 41.55C99.1312 41.99 97.8912 42.21 96.4912 42.21ZM117.954 42V38.76L117.744 38.07V32.4C117.744 31.3 117.414 30.45 116.754 29.85C116.094 29.23 115.094 28.92 113.754 28.92C112.854 28.92 111.964 29.06 111.084 29.34C110.224 29.62 109.494 30.01 108.894 30.51L107.424 27.78C108.284 27.12 109.304 26.63 110.484 26.31C111.684 25.97 112.924 25.8 114.204 25.8C116.524 25.8 118.314 26.36 119.574 27.48C120.854 28.58 121.494 30.29 121.494 32.61V42H117.954ZM112.914 42.21C111.714 42.21 110.664 42.01 109.764 41.61C108.864 41.19 108.164 40.62 107.664 39.9C107.184 39.16 106.944 38.33 106.944 37.41C106.944 36.51 107.154 35.7 107.574 34.98C108.014 34.26 108.724 33.69 109.704 33.27C110.684 32.85 111.984 32.64 113.604 32.64H118.254V35.13H113.874C112.594 35.13 111.734 35.34 111.294 35.76C110.854 36.16 110.634 36.66 110.634 37.26C110.634 37.94 110.904 38.48 111.444 38.88C111.984 39.28 112.734 39.48 113.694 39.48C114.614 39.48 115.434 39.27 116.154 38.85C116.894 38.43 117.424 37.81 117.744 36.99L118.374 39.24C118.014 40.18 117.364 40.91 116.424 41.43C115.504 41.95 114.334 42.21 112.914 42.21ZM127.206 42V25.98H130.776V30.39L130.356 29.1C130.836 28.02 131.586 27.2 132.606 26.64C133.646 26.08 134.936 25.8 136.476 25.8V29.37C136.316 29.33 136.166 29.31 136.026 29.31C135.886 29.29 135.746 29.28 135.606 29.28C134.186 29.28 133.056 29.7 132.216 30.54C131.376 31.36 130.956 32.59 130.956 34.23V42H127.206ZM147.174 42.21C145.414 42.21 144.054 41.76 143.094 40.86C142.134 39.94 141.654 38.59 141.654 36.81V22.44H145.404V36.72C145.404 37.48 145.594 38.07 145.974 38.49C146.374 38.91 146.924 39.12 147.624 39.12C148.464 39.12 149.164 38.9 149.724 38.46L150.774 41.13C150.334 41.49 149.794 41.76 149.154 41.94C148.514 42.12 147.854 42.21 147.174 42.21ZM139.014 29.1V26.1H149.694V29.1H139.014ZM163.848 25.8C165.128 25.8 166.268 26.05 167.268 26.55C168.288 27.05 169.088 27.82 169.668 28.86C170.248 29.88 170.538 31.2 170.538 32.82V42H166.788V33.3C166.788 31.88 166.448 30.82 165.768 30.12C165.108 29.42 164.178 29.07 162.978 29.07C162.098 29.07 161.318 29.25 160.638 29.61C159.958 29.97 159.428 30.51 159.048 31.23C158.688 31.93 158.508 32.82 158.508 33.9V42H154.758V19.74H158.508V30.3L157.698 28.98C158.258 27.96 159.068 27.18 160.128 26.64C161.208 26.08 162.448 25.8 163.848 25.8ZM204.129 42V21H213.969C216.489 21 218.409 21.5 219.729 22.5C221.049 23.48 221.709 24.8 221.709 26.46C221.709 27.58 221.449 28.54 220.929 29.34C220.409 30.12 219.709 30.73 218.829 31.17C217.969 31.59 217.029 31.8 216.009 31.8L216.549 30.72C217.729 30.72 218.789 30.94 219.729 31.38C220.669 31.8 221.409 32.42 221.949 33.24C222.509 34.06 222.789 35.08 222.789 36.3C222.789 38.1 222.099 39.5 220.719 40.5C219.339 41.5 217.289 42 214.569 42H204.129ZM208.029 38.94H214.329C215.789 38.94 216.909 38.7 217.689 38.22C218.469 37.74 218.859 36.97 218.859 35.91C218.859 34.87 218.469 34.11 217.689 33.63C216.909 33.13 215.789 32.88 214.329 32.88H207.729V29.85H213.549C214.909 29.85 215.949 29.61 216.669 29.13C217.409 28.65 217.779 27.93 217.779 26.97C217.779 25.99 217.409 25.26 216.669 24.78C215.949 24.3 214.909 24.06 213.549 24.06H208.029V38.94ZM234.271 42.21C232.911 42.21 231.711 41.96 230.671 41.46C229.631 40.94 228.821 40.16 228.241 39.12C227.661 38.06 227.371 36.73 227.371 35.13V25.98H231.121V34.62C231.121 36.06 231.441 37.14 232.081 37.86C232.741 38.56 233.671 38.91 234.871 38.91C235.751 38.91 236.511 38.73 237.151 38.37C237.811 38.01 238.321 37.47 238.681 36.75C239.061 36.03 239.251 35.14 239.251 34.08V25.98H243.001V42H239.431V37.68L240.061 39C239.521 40.04 238.731 40.84 237.691 41.4C236.651 41.94 235.511 42.21 234.271 42.21ZM255.591 42.21C254.051 42.21 252.661 41.87 251.421 41.19C250.201 40.49 249.241 39.53 248.541 38.31C247.841 37.09 247.491 35.65 247.491 33.99C247.491 32.33 247.841 30.89 248.541 29.67C249.241 28.45 250.201 27.5 251.421 26.82C252.661 26.14 254.051 25.8 255.591 25.8C256.931 25.8 258.131 26.1 259.191 26.7C260.251 27.28 261.091 28.17 261.711 29.37C262.331 30.57 262.641 32.11 262.641 33.99C262.641 35.85 262.341 37.39 261.741 38.61C261.141 39.81 260.311 40.71 259.251 41.31C258.191 41.91 256.971 42.21 255.591 42.21ZM256.041 39C256.941 39 257.741 38.8 258.441 38.4C259.161 38 259.731 37.42 260.151 36.66C260.591 35.9 260.811 35.01 260.811 33.99C260.811 32.95 260.591 32.06 260.151 31.32C259.731 30.56 259.161 29.98 258.441 29.58C257.741 29.18 256.941 28.98 256.041 28.98C255.141 28.98 254.331 29.18 253.611 29.58C252.911 29.98 252.341 30.56 251.901 31.32C251.481 32.06 251.271 32.95 251.271 33.99C251.271 35.01 251.481 35.9 251.901 36.66C252.341 37.42 252.911 38 253.611 38.4C254.331 38.8 255.141 39 256.041 39ZM260.901 42V38.22L261.051 33.96L260.751 29.7V19.74H264.471V42H260.901ZM277.086 42.21C275.546 42.21 274.156 41.87 272.916 41.19C271.696 40.49 270.736 39.53 270.036 38.31C269.336 37.09 268.986 35.65 268.986 33.99C268.986 32.33 269.336 30.89 270.036 29.67C270.736 28.45 271.696 27.5 272.916 26.82C274.156 26.14 275.546 25.8 277.086 25.8C278.426 25.8 279.626 26.1 280.686 26.7C281.746 27.28 282.586 28.17 283.206 29.37C283.826 30.57 284.136 32.11 284.136 33.99C284.136 35.85 283.836 37.39 283.236 38.61C282.636 39.81 281.806 40.71 280.746 41.31C279.686 41.91 278.466 42.21 277.086 42.21ZM277.536 39C278.436 39 279.236 38.8 279.936 38.4C280.656 38 281.226 37.42 281.646 36.66C282.086 35.9 282.306 35.01 282.306 33.99C282.306 32.95 282.086 32.06 281.646 31.32C281.226 30.56 280.656 29.98 279.936 29.58C279.236 29.18 278.436 28.98 277.536 28.98C276.636 28.98 275.826 29.18 275.106 29.58C274.406 29.98 273.836 30.56 273.396 31.32C272.976 32.06 272.766 32.95 272.766 33.99C272.766 35.01 272.976 35.9 273.396 36.66C273.836 37.42 274.406 38 275.106 38.4C275.826 38.8 276.636 39 277.536 39ZM282.396 42V38.22L282.546 33.96L282.246 29.7V19.74H285.966V42H282.396ZM293.122 48.03C292.342 48.03 291.562 47.9 290.782 47.64C290.002 47.38 289.352 47.02 288.832 46.56L290.332 43.8C290.712 44.14 291.142 44.41 291.622 44.61C292.102 44.81 292.592 44.91 293.092 44.91C293.772 44.91 294.322 44.74 294.742 44.4C295.162 44.06 295.552 43.49 295.912 42.69L296.842 40.59L297.142 40.14L303.202 25.98H306.802L299.302 43.29C298.802 44.49 298.242 45.44 297.622 46.14C297.022 46.84 296.342 47.33 295.582 47.61C294.842 47.89 294.022 48.03 293.122 48.03ZM296.422 42.57L289.192 25.98H293.092L298.972 39.81L296.422 42.57Z" fill="#302734"/>
<path d="M182.441 36.4238L177.242 37.3793L177.589 38.7575L179.315 39.6634L179.347 39.6723C180.135 39.8907 180.857 40.2882 181.457 40.8332L182.726 40.9807L185.038 40.823L186.988 41.3637L189.874 40.8818L193.576 38.9539L195.946 35.9505L197.611 32.2501L197.809 28.3659L195.742 23.5937L194.393 23.461L194.2 22.9617L193.657 22.6809L193.5 22.1914L191.602 21.6653L190.816 20.7971L189.558 20.9312L189.194 20.18L187.426 20.1728C187.426 20.1728 183.688 21.1053 183.278 21.4941C182.869 21.8829 182.612 22.3668 181.506 22.7677C180.399 23.1686 179.664 23.2395 179.731 23.3532C179.797 23.4669 179.727 24.1883 179.727 24.1883L178.931 27.9069L179.968 30.8513L181.266 32.735L182.998 34.5716L186.571 34.0071C186.571 34.0071 188.204 33.8429 189.956 31.5025C191.707 29.1621 186.127 28.044 186.055 28.2841C185.983 28.5242 185.423 30.2456 185.423 30.2456L184.036 30.3628L183.632 27.9096L184.874 25.6156L186.89 24.7996L192.266 26.2902L192.841 29.1252L192.108 31.5605L191.561 33.3784L187.103 36.1743L182.441 36.4238Z" fill="#45374D" fill-opacity="0.7" stroke="#45374D" stroke-opacity="0.7"/>
</svg>
